<?xml version="1.0" encoding="utf-8"?>
<!-- Generator: Adobe Illustrator 27.5.0, SVG Export Plug-In . SVG Version: 6.00 Build 0)  -->
<svg version="1.1" id="图层_1" xmlns="http://www.w3.org/2000/svg" xmlns:xlink="http://www.w3.org/1999/xlink" x="0px" y="0px"
	 viewBox="0 0 438 108" style="enable-background:new 0 0 438 108;" xml:space="preserve">
<style type="text/css">
	.st0{fill-rule:evenodd;clip-rule:evenodd;fill:#0058A7;}
	.st1{fill:#0058A7;}
</style>
<g>
	<polygon class="st0" points="270.9,63.2 272.4,54.7 256,54.7 260.9,27.1 250.3,27.1 243.9,63.2 270.9,63.2 	"/>
	<polygon class="st0" points="285.3,63.2 291.5,28 280.9,28 274.7,63.2 285.3,63.2 	"/>
	<polygon class="st0" points="307.1,28 298.1,28 291.9,63.2 301.8,63.2 304.7,44 314.6,63.2 323.6,63.2 329.8,28 319.9,28 
		316.9,47.2 307.3,28 	"/>
	<path class="st0" d="M192.1,34c5.5-0.2,6.6,5.3,5.7,10.5c-1.1,6.3-4,10.9-9.4,10.9c-6,0-6.4-6.1-5.5-10.9
		C183.8,39.6,186.4,34,192.1,34L192.1,34z M193.4,26.9c-10.5,0-18.8,6.9-20.7,17.5c-2,11.5,3.9,18,14.5,18c10,0,18.8-6.5,20.8-17.9
		C209.6,35.6,205.4,26.9,193.4,26.9L193.4,26.9z"/>
	<path class="st0" d="M223.2,36.2h5.4c2.7,0,4.4,1.2,4,3.7c-0.4,2.4-2.5,3.3-6.1,3.3H222L223.2,36.2L223.2,36.2z M224.2,50.9
		c5.4,0,5.9,1.5,5.1,6.1c-0.6,3.1-0.7,5.4-0.5,6.2h10.8c0,0-1.2-2.6-0.4-7.2c1.2-7.1,0.1-8-3.4-9.3c4.3-1.1,5.8-4.6,6.5-8.6
		c1.2-6.9-3-10-14.8-10h-12.9l-6.2,35.2h10.2l2.2-12.3H224.2L224.2,50.9z"/>
	<g>
		<polygon class="st0" points="367.8,28 337.7,63.2 326.6,63.2 356.5,28 		"/>
		<polygon class="st0" points="332.4,28 351.6,63.2 362.3,63.2 343.1,28 		"/>
	</g>
	<polygon class="st0" points="171.4,36.2 172.8,28 147.3,28 141.1,63.2 150.8,63.2 153,50.9 165.5,50.9 166.9,42.5 154.4,42.5 
		155.6,36.2 	"/>
</g>
<g>
	<polygon class="st1" points="47.6,72.4 47.6,35.2 29.1,53.7 	"/>
	<path class="st1" d="M54.5,28.3l7-7.1v40.7c0,1-1.4,3.1-2.4,4.4l-7.8,9.8l-2.3-2.3c0,0,2.5-3.1,3.6-4.5c1.1-1.5,1.9-2.4,1.9-6.6
		C54.6,58.5,54.5,28.3,54.5,28.3z"/>
	<path class="st1" d="M68.6,21.2l6.7,6.7c0,0,0,23.6,0,24.5c0,2.4,0,2.2-4.2,7.8l-5.5,7.2c-0.9,1.4-2,2.3-2,6.7c0,4.4,0,14.4,0,14.4
		L53.2,77.9c0,0,12-15.3,13.1-16.8c1.1-1.5,2.3-2.5,2.3-8.2C68.6,47.2,68.6,21.2,68.6,21.2z"/>
	<path class="st1" d="M89.4,21.2l-6.9,6.7v16.7c0,3.5,0.2,4.9-2.6,8.4c0,0-9.9,12.6-10.9,13.9c-2.1,3-2.8,2.8-2.8,9.2v12.3L77.7,77
		c0,0,0-11.8,0-12.9c0-3,1.1-4.2,3-6.7c0,0,6-7.7,6.9-8.9c1.8-2.4,1.8-2.7,1.8-6.7V21.2z"/>
	<path class="st1" d="M96.5,21.2c0,0,0,13.3,0,15.3c0,2,0.3,4.2-1.9,7c0,0-11,13.8-11.9,15c-0.9,1.2-2.5,2.8-2.5,6.7V77l11.5,11.5
		c0,0,0-29.1,0-31.5c0-2.4,0.2-4.3,2.5-7.1c2.2-2.7,6.6-8.5,6.6-8.5c1.9-2.6,2.8-3.8,2.8-6.4c0-2.6,0-6.8,0-6.8L96.5,21.2z"/>
	<path class="st1" d="M109.4,34.2l2.4,2.4c0,0-3.8,4.8-4.7,6c-1.3,1.8-1.9,2.6-1.9,6.4v28.6L94.3,88.4c0,0,0-28.2,0-30.4
		c0-2.2-0.3-4.3,1.7-6.8L109.4,34.2z"/>
	<path class="st1" d="M113.4,38.2l15.4,15.5l-21.3,21.3c0,0,0-23.7,0-25.4c0-1.8,0-4,0.8-5.1L113.4,38.2z"/>
</g>
<g>
	<path d="M268.2,82.1l2.2-12.7h9.1l-0.3,1.5h-7.5l-0.7,3.9h7l-0.3,1.5h-7l-0.8,4.3h7.8l-0.3,1.5H268.2z"/>
	<path d="M280.8,82.1l1.6-9.2h1.4l-0.2,1.3c0.4-0.5,0.9-0.8,1.4-1.1c0.5-0.3,1.1-0.4,1.7-0.4c0.6,0,1.2,0.1,1.6,0.4
		c0.4,0.3,0.6,0.7,0.7,1.2c0.5-0.5,1-0.9,1.5-1.2c0.5-0.3,1.1-0.4,1.6-0.4c0.9,0,1.5,0.2,1.9,0.7c0.4,0.5,0.5,1.3,0.3,2.4l-1.1,6.3
		h-1.5l1-5.8c0.1-0.7,0.1-1.1,0.1-1.4c-0.1-0.3-0.2-0.5-0.5-0.6c-0.2-0.2-0.5-0.2-0.8-0.2c-0.7,0-1.3,0.2-1.8,0.7
		c-0.5,0.4-0.8,1.1-1,2.1l-0.9,5.3h-1.5l1.1-6c0.1-0.8,0.1-1.3-0.1-1.6c-0.2-0.3-0.6-0.5-1.1-0.5c-0.7,0-1.3,0.2-1.8,0.7
		c-0.5,0.5-0.8,1.3-1.1,2.6l-0.8,4.8H280.8z"/>
	<path d="M298,82.1h-1.4l2.2-12.7h1.6l-0.8,4.5c0.4-0.4,0.8-0.7,1.3-0.9c0.5-0.2,0.9-0.3,1.4-0.3c0.7,0,1.3,0.2,1.9,0.5
		c0.5,0.4,0.9,0.9,1.1,1.6s0.2,1.6,0.1,2.6c-0.3,1.6-0.9,2.8-1.8,3.6c-0.9,0.8-1.9,1.3-3,1.3c-0.5,0-1-0.1-1.4-0.3
		c-0.4-0.2-0.7-0.6-0.9-1L298,82.1z M298.8,77.5c-0.2,1-0.2,1.7-0.1,2.1c0.1,0.5,0.4,0.8,0.7,1.1c0.3,0.2,0.8,0.4,1.2,0.4
		c0.6,0,1.3-0.3,1.9-0.9c0.6-0.6,1-1.5,1.2-2.7c0.2-1.2,0.1-2.1-0.2-2.7c-0.4-0.6-0.9-0.8-1.6-0.8c-0.6,0-1.3,0.3-1.9,0.9
		C299.4,75.5,299,76.4,298.8,77.5z"/>
	<path d="M314.2,79.2l1.6,0.2c-0.4,1-1.1,1.7-1.8,2.2c-0.8,0.5-1.7,0.7-2.7,0.7c-1.3,0-2.3-0.4-2.9-1.2c-0.7-0.8-0.9-2-0.6-3.5
		c0.3-1.6,0.9-2.8,1.9-3.6c1-0.8,2.1-1.3,3.3-1.3c1.2,0,2.1,0.4,2.7,1.2s0.8,2,0.6,3.6l-0.1,0.4h-6.8c-0.1,1,0,1.8,0.5,2.3
		c0.4,0.5,1,0.8,1.8,0.8C312.6,81.1,313.6,80.4,314.2,79.2z M309.6,76.7h5.1c0.1-0.8,0-1.4-0.3-1.8c-0.4-0.6-1-0.9-1.8-0.9
		c-0.7,0-1.3,0.2-1.9,0.7C310.1,75.2,309.8,75.9,309.6,76.7z"/>
	<path d="M324.3,82.1l0.2-1.2c-0.4,0.4-0.8,0.8-1.3,1c-0.5,0.2-1,0.4-1.5,0.4c-1.1,0-1.9-0.4-2.6-1.3c-0.6-0.8-0.8-2-0.6-3.5
		c0.2-1,0.5-1.9,1-2.7c0.5-0.7,1-1.3,1.7-1.6c0.6-0.4,1.3-0.5,2-0.5c0.5,0,1,0.1,1.4,0.3s0.7,0.5,0.9,0.9l0.8-4.6h1.6l-2.2,12.7
		H324.3z M320.2,77.6c-0.2,1.2-0.1,2.1,0.3,2.6c0.4,0.6,0.9,0.9,1.6,0.9c0.7,0,1.3-0.3,1.9-0.8c0.6-0.6,1-1.4,1.2-2.5
		c0.2-1.3,0.2-2.2-0.2-2.8c-0.4-0.6-0.9-0.9-1.7-0.9c-0.7,0-1.3,0.3-1.8,0.9C320.8,75.4,320.4,76.3,320.2,77.6z"/>
	<path d="M335.2,82.1l0.2-1.2c-0.4,0.4-0.8,0.8-1.3,1c-0.5,0.2-1,0.4-1.5,0.4c-1.1,0-1.9-0.4-2.6-1.3c-0.6-0.8-0.8-2-0.6-3.5
		c0.2-1,0.5-1.9,1-2.7c0.5-0.7,1-1.3,1.7-1.6c0.6-0.4,1.3-0.5,2-0.5c0.5,0,1,0.1,1.4,0.3c0.4,0.2,0.7,0.5,0.9,0.9l0.8-4.6h1.6
		l-2.2,12.7H335.2z M331.1,77.6c-0.2,1.2-0.1,2.1,0.3,2.6c0.4,0.6,0.9,0.9,1.6,0.9c0.7,0,1.3-0.3,1.9-0.8c0.6-0.6,1-1.4,1.2-2.5
		c0.2-1.3,0.2-2.2-0.2-2.8c-0.4-0.6-0.9-0.9-1.7-0.9c-0.7,0-1.3,0.3-1.8,0.9C331.7,75.4,331.3,76.3,331.1,77.6z"/>
	<path d="M346.9,79.2l1.6,0.2c-0.4,1-1.1,1.7-1.8,2.2c-0.8,0.5-1.7,0.7-2.7,0.7c-1.3,0-2.3-0.4-2.9-1.2c-0.7-0.8-0.9-2-0.6-3.5
		c0.3-1.6,0.9-2.8,1.9-3.6c1-0.8,2.1-1.3,3.3-1.3c1.2,0,2.1,0.4,2.7,1.2s0.8,2,0.6,3.6l-0.1,0.4h-6.8c-0.1,1,0,1.8,0.5,2.3
		c0.4,0.5,1,0.8,1.8,0.8C345.3,81.1,346.2,80.4,346.9,79.2z M342.3,76.7h5.1c0.1-0.8,0-1.4-0.3-1.8c-0.4-0.6-1-0.9-1.8-0.9
		c-0.7,0-1.3,0.2-1.9,0.7C342.8,75.2,342.5,75.9,342.3,76.7z"/>
	<path d="M357,82.1l0.2-1.2c-0.4,0.4-0.8,0.8-1.3,1c-0.5,0.2-1,0.4-1.5,0.4c-1.1,0-1.9-0.4-2.6-1.3c-0.6-0.8-0.8-2-0.6-3.5
		c0.2-1,0.5-1.9,1-2.7c0.5-0.7,1-1.3,1.7-1.6c0.6-0.4,1.3-0.5,2-0.5c0.5,0,1,0.1,1.4,0.3s0.7,0.5,0.9,0.9l0.8-4.6h1.6l-2.2,12.7H357
		z M352.9,77.6c-0.2,1.2-0.1,2.1,0.3,2.6c0.4,0.6,0.9,0.9,1.6,0.9c0.7,0,1.3-0.3,1.9-0.8c0.6-0.6,1-1.4,1.2-2.5
		c0.2-1.3,0.2-2.2-0.2-2.8c-0.4-0.6-0.9-0.9-1.7-0.9c-0.7,0-1.3,0.3-1.8,0.9C353.5,75.4,353.1,76.3,352.9,77.6z"/>
</g>
</svg>
